<svg xmlns="http://www.w3.org/2000/svg" viewBox="0 0 512 512">
<!-- 标题栏 / 托盘小尺寸版：扩大 CDL，省略中文，保留弧形色带。 -->
<defs><clipPath id="tile"><rect width="512" height="512" rx="104"/></clipPath></defs>
<rect width="512" height="512" rx="104" fill="#F2C12E"/>
<rect x="40" y="64" width="432" height="272" rx="56" fill="#FBFBF8"/>
<g fill="#18211E" transform="translate(67.37778 265.15556) scale(0.0888889 -0.0888889)"><path transform="translate(0 0)" d="M1087 539 1374 448Q1308 208 1154.5 91.5Q1001 -25 765 -25Q473 -25 285.0 174.5Q97 374 97 720Q97 1086 286.0 1288.5Q475 1491 783 1491Q1052 1491 1220 1332Q1320 1238 1370 1062L1077 992Q1051 1106 968.5 1172.0Q886 1238 768 1238Q605 1238 503.5 1121.0Q402 1004 402 742Q402 464 502.0 346.0Q602 228 762 228Q880 228 965.0 303.0Q1050 378 1087 539Z"/><path transform="translate(1479 0)" d="M148 1466H689Q872 1466 968 1438Q1097 1400 1189.0 1303.0Q1281 1206 1329.0 1065.5Q1377 925 1377 719Q1377 538 1332 407Q1277 247 1175 148Q1098 73 967 31Q869 0 705 0H148ZM444 1218V247H665Q789 247 844 261Q916 279 963.5 322.0Q1011 365 1041.0 463.5Q1071 562 1071 732Q1071 902 1041.0 993.0Q1011 1084 957.0 1135.0Q903 1186 820 1204Q758 1218 577 1218Z"/><path transform="translate(2958 0)" d="M157 0V1454H453V247H1189V0Z"/></g>
<path clip-path="url(#tile)" d="M0 416Q256 324 512 416V512H0Z" fill="#2FAE63"/>
</svg>
